<?xml version="1.0"?>
<svg xmlns="http://www.w3.org/2000/svg" id="Layer_1" data-name="Layer 1" viewBox="0 0 847.72 213.63">
  <defs>
    <style>.cls-1{fill:#2d2d85;}.cls-2{fill:#726ca8;}</style>
  </defs>
  <path class="cls-1" d="M176.27,146.25V67.38h19.22v63h55.33v15.84Z"/>
  <path class="cls-1" d="M285.4,98.33H338v14.53H285.4v18h55.85v15.39H266.18V67.38h73.75V82.83H285.4Z"/>
  <path class="cls-1" d="M400.7,81.18c-15.45,0-25.89,8.87-25.89,25.64s10.44,25.63,25.89,25.63c15.87,0,22.39-7.77,22.89-17.5h22.75c-.55,21.27-18.27,33.58-45.64,33.58-26.85,0-47-13.42-47-41.71s20.11-41.71,47-41.71c27.37,0,44.61,12.31,45.42,31.92H423.65C423.05,89.24,416.57,81.18,400.7,81.18Z"/>
  <path class="cls-1" d="M537.18,83.39h-31.4v62.86H486.56V83.39H455.15v-16h82Z"/>
  <path class="cls-1" d="M635.74,67.38V114c0,25.93-16.93,34.5-42.13,34.5s-42.13-8.57-42.13-34.5V67.38H570.7v46.37c0,14,9.22,18.8,22.91,18.8s22.91-4.8,22.91-18.8V67.38Z"/>
  <path class="cls-1" d="M741.61,146.25H719.55l-17.42-28.92h-28v28.92H654.86V67.38h56c20.4,0,28.9,7.94,28.9,24.57,0,14.52-8,19.93-17.86,22.1v.67ZM718.44,92.88c0-6.41-3.29-9.43-10.85-9.43H674.08V102.3h33.51C715.15,102.3,718.44,99.28,718.44,92.88Z"/>
  <path class="cls-1" d="M819.73,131.11h-43l-6.87,15.14h-21l37.3-78.87h24.36l37.13,78.87H826.6Zm-6.79-14.93L798.5,84.38h-.56l-14.41,31.8Z"/>
  <polygon class="cls-1" points="119.75 0 50.65 166.84 0 166.84 69.11 0 119.75 0"/>
  <polygon class="cls-1" points="50.65 166.84 70.03 213.63 134.93 213.63 154.31 166.84 50.65 166.84"/>
  <path class="cls-1" d="M176.27,146.25V67.38h19.22v63h55.33v15.84Z"/>
  <path class="cls-1" d="M285.4,98.33H338v14.53H285.4v18h55.85v15.39H266.18V67.38h73.75V82.83H285.4Z"/>
  <path class="cls-1" d="M400.7,81.18c-15.45,0-25.89,8.87-25.89,25.64s10.44,25.63,25.89,25.63c15.87,0,22.39-7.77,22.89-17.5h22.75c-.55,21.27-18.27,33.58-45.64,33.58-26.85,0-47-13.42-47-41.71s20.11-41.71,47-41.71c27.37,0,44.61,12.31,45.42,31.92H423.65C423.05,89.24,416.57,81.18,400.7,81.18Z"/>
  <path class="cls-1" d="M537.18,83.39h-31.4v62.86H486.56V83.39H455.15v-16h82Z"/>
  <path class="cls-1" d="M635.74,67.38V114c0,25.93-16.93,34.5-42.13,34.5s-42.13-8.57-42.13-34.5V67.38H570.7v46.37c0,14,9.22,18.8,22.91,18.8s22.91-4.8,22.91-18.8V67.38Z"/>
  <path class="cls-1" d="M741.61,146.25H719.55l-17.42-28.92h-28v28.92H654.86V67.38h56c20.4,0,28.9,7.94,28.9,24.57,0,14.52-8,19.93-17.86,22.1v.67ZM718.44,92.88c0-6.41-3.29-9.43-10.85-9.43H674.08V102.3h33.51C715.15,102.3,718.44,99.28,718.44,92.88Z"/>
  <path class="cls-1" d="M819.73,131.11h-43l-6.87,15.14h-21l37.3-78.87h24.36l37.13,78.87H826.6Zm-6.79-14.93L798.5,84.38h-.56l-14.41,31.8Z"/>
  <path class="cls-2" d="M311.63,177.64c5.46,0,8.48,3,8.48,7.47a5.36,5.36,0,0,1-3.44,5.32v.16a6.39,6.39,0,0,1,4.36,6.53c0,4.83-3.16,8-8.91,8h-13V177.64Zm-.79,11.51c2.88,0,4.38-1.39,4.38-3.79s-1.5-3.79-4.38-3.79h-6.91v7.58Zm.46,11.92c3.16,0,4.8-1.54,4.8-4.14s-1.64-4.15-4.8-4.15h-7.37v8.29Z"/>
  <path class="cls-2" d="M345.64,194.93c0,6.43-3.91,10.62-10,10.62s-10.07-4.19-10.07-10.62,3.91-10.63,10.07-10.63S345.64,188.5,345.64,194.93Zm-4.59,0c0-4.5-2.11-7.1-5.45-7.1s-5.48,2.6-5.48,7.1,2.11,7.09,5.48,7.09S341.05,199.43,341.05,194.93Z"/>
  <path class="cls-2" d="M370,194.93c0,6.43-3.91,10.62-10,10.62s-10.07-4.19-10.07-10.62,3.9-10.63,10.07-10.63S370,188.5,370,194.93Zm-4.59,0c0-4.5-2.11-7.1-5.45-7.1s-5.48,2.6-5.48,7.1,2.11,7.09,5.48,7.09S365.38,199.43,365.38,194.93Z"/>
  <path class="cls-2" d="M387.19,190.87a4.3,4.3,0,0,0-4.46-3.33c-2.2,0-3.7,1-3.7,2.73s1.66,2.08,3.79,2.45l2,.31c3.55.62,6.94,1.7,6.94,6.12s-3.84,6.4-8.88,6.4c-5.24,0-8.63-2.57-9.32-6.36l4.16-.75c.59,2.71,2.51,3.9,5.23,3.9,2.49,0,4.22-1.12,4.22-3,0-1.67-1.68-2.25-4.08-2.65L381,196.3c-3.19-.54-6.54-1.64-6.54-5.92,0-3.62,3.54-6.08,8.28-6.08,4.56,0,8,2.61,8.57,5.83Z"/>
  <path class="cls-2" d="M405.18,201.41c.47,0,1.3,0,1.85,0v3.71c-.46,0-2,.08-3.14.08-3.79,0-5.52-.86-5.52-4.63V188h-3.3v-3.23h3.3v-5.71h4.51v5.71h4.35V188h-4.35v11.36c0,1.85.72,2,2.3,2Z"/>
  <path class="cls-2" d="M416.34,177.25v4.42h-4.5v-4.42Zm0,7.52v20.31h-4.5V184.77Z"/>
  <path class="cls-2" d="M426.87,187.44a7.34,7.34,0,0,1,6.35-3.14c3.74,0,7.18,2.19,7.18,7.35v13.43h-4.51V192.91c0-3.61-1.49-4.9-4.22-4.9-2.42,0-4.74,2-4.74,6v11.12h-4.51V184.77h4.3v2.67Z"/>
  <path class="cls-2" d="M464.88,203.62c0,6.58-4.32,9-9.72,9-4.5,0-8.25-1.89-9.52-6.53l4.38-.75c.74,2.74,2.53,3.74,5.14,3.74,3.24,0,5.22-1.63,5.22-5.64v-2h-.16c-1.1,1.55-3.15,2.53-5.91,2.53-5.18,0-8.93-3.88-8.93-9.86s3.75-9.85,9-9.85c2.74,0,5,1,6.09,2.82h.15v-2.35h4.3Zm-4.22-9.47c0-3.76-2.09-6.3-5.33-6.3s-5.35,2.54-5.35,6.3,2.08,6.38,5.35,6.38S460.66,198,460.66,194.15Z"/>
  <path class="cls-2" d="M500.13,189v3.86h-14V201h14.61v4.09H481.3V177.64h19.46v4H486.15V189Z"/>
  <path class="cls-2" d="M514.1,205.55c-5.27,0-9.09-4.19-9.09-10.63s3.82-10.62,9.12-10.62c2.81,0,5.09,1,6.26,3.07h.15v-2.6h4.3v27.39h-4.5v-9.41h-.16c-1.14,1.77-3.26,2.8-6.08,2.8Zm-4.5-10.62c0,4.47,2.15,7.07,5.52,7.07s5.49-2.6,5.49-7.07-2.15-7.07-5.49-7.07S509.6,190.46,509.6,194.93Z"/>
  <path class="cls-2" d="M544.4,202.41a7.34,7.34,0,0,1-6.35,3.14c-3.74,0-7.18-2.19-7.18-7.35V184.77h4.51v12.17c0,3.61,1.49,4.9,4.22,4.9,2.42,0,4.74-2,4.74-6V184.77h4.51v20.31h-4.3v-2.67Z"/>
  <path class="cls-2" d="M559.42,177.25v4.42h-4.51v-4.42Zm0,7.52v20.31h-4.51V184.77Z"/>
  <path class="cls-2" d="M570.16,202.75H570v9.41h-4.5V184.77h4.29v2.6H570c1.16-2,3.45-3.07,6.25-3.07,5.31,0,9.13,4.19,9.13,10.62s-3.82,10.63-9.09,10.63C573.41,205.55,571.3,204.52,570.16,202.75Zm-.44-7.82c0,4.46,2.16,7.07,5.49,7.07s5.53-2.61,5.53-7.07-2.15-7.07-5.53-7.07S569.72,190.46,569.72,194.93Z"/>
  <path class="cls-2" d="M613.71,184.3c3.49,0,6.81,2.19,6.81,7.35v13.43H616V192.91c0-3.61-1.42-4.9-3.89-4.9-2.25,0-4.35,2-4.35,6v11.12h-4.5V192.91c0-3.61-1.42-4.9-3.89-4.9-2.25,0-4.35,2-4.35,6v11.12h-4.51V184.77h4.3v2.7H595a7,7,0,0,1,6-3.17,6.4,6.4,0,0,1,5.9,3.33,8.32,8.32,0,0,1,6.84-3.33Z"/>
  <path class="cls-2" d="M645,199.12c-.87,2.91-3.42,6.43-9.58,6.43-5.93,0-9.8-4.22-9.8-10.59s3.74-10.66,9.76-10.66,10.29,4.26,9.76,11.66h-15c.1,3.54,2.07,6.15,5.23,6.15a4.89,4.89,0,0,0,5-3.47Zm-14.74-6.36h10.31c-.27-2.67-1.94-5-5.19-5S630.51,190.09,630.25,192.76Z"/>
  <path class="cls-2" d="M654.79,187.44a7.32,7.32,0,0,1,6.35-3.14c3.74,0,7.17,2.19,7.17,7.35v13.43h-4.5V192.91c0-3.61-1.5-4.9-4.22-4.9-2.43,0-4.75,2-4.75,6v11.12h-4.5V184.77h4.29v2.67Z"/>
  <path class="cls-2" d="M682.43,201.41c.47,0,1.3,0,1.85,0v3.71c-.46,0-2,.08-3.15.08-3.78,0-5.51-.86-5.51-4.63V188h-3.31v-3.23h3.31v-5.71h4.5v5.71h4.36V188h-4.36v11.36c0,1.85.72,2,2.31,2Z"/>
  <path class="cls-2" d="M699.87,177.64h4.85v27.44h-4.85Z"/>
  <path class="cls-2" d="M715.73,187.44a7.32,7.32,0,0,1,6.35-3.14c3.74,0,7.17,2.19,7.17,7.35v13.43h-4.5V192.91c0-3.61-1.5-4.9-4.22-4.9-2.43,0-4.75,2-4.75,6v11.12h-4.5V184.77h4.29v2.67Z"/>
  <path class="cls-2" d="M747.26,190.87a4.3,4.3,0,0,0-4.46-3.33c-2.2,0-3.7,1-3.7,2.73s1.66,2.08,3.79,2.45l2,.31c3.55.62,6.94,1.7,6.94,6.12s-3.84,6.4-8.88,6.4c-5.24,0-8.63-2.57-9.32-6.36l4.16-.75c.59,2.71,2.51,3.9,5.23,3.9,2.49,0,4.22-1.12,4.22-3,0-1.67-1.68-2.25-4.08-2.65l-2.11-.35c-3.19-.54-6.55-1.64-6.55-5.92,0-3.62,3.55-6.08,8.29-6.08,4.56,0,8,2.61,8.57,5.83Z"/>
  <path class="cls-2" d="M761.41,177.25v4.42h-4.5v-4.42Zm0,7.52v20.31h-4.5V184.77Z"/>
  <path class="cls-2" d="M786,203.62c0,6.58-4.32,9-9.73,9-4.5,0-8.25-1.89-9.52-6.53l4.39-.75c.73,2.74,2.52,3.74,5.13,3.74,3.25,0,5.22-1.63,5.22-5.64v-2h-.15c-1.11,1.55-3.16,2.53-5.92,2.53-5.17,0-8.92-3.88-8.92-9.86s3.75-9.85,9-9.85c2.73,0,5,1,6.08,2.82h.16v-2.35H786Zm-4.23-9.47c0-3.76-2.09-6.3-5.32-6.3s-5.36,2.54-5.36,6.3,2.08,6.38,5.36,6.38S781.8,198,781.8,194.15Z"/>
  <path class="cls-2" d="M796.76,187.44A7.32,7.32,0,0,1,803,184.3c3.62,0,7.06,2.19,7.06,7.35v13.43h-4.51V192.91c0-3.61-1.49-4.9-4.22-4.9-2.36,0-4.74,2.35-4.74,6.29v10.78H792.1V177.25h4.51v10.19Z"/>
  <path class="cls-2" d="M824.2,201.41c.46,0,1.3,0,1.84,0v3.71c-.45,0-2,.08-3.14.08-3.79,0-5.52-.86-5.52-4.63V188h-3.3v-3.23h3.3v-5.71h4.51v5.71h4.35V188h-4.35v11.36c0,1.85.72,2,2.31,2Z"/>
  <path class="cls-2" d="M843.12,190.87a4.3,4.3,0,0,0-4.46-3.33c-2.2,0-3.7,1-3.7,2.73s1.66,2.08,3.79,2.45l2,.31c3.56.62,7,1.7,7,6.12s-3.84,6.4-8.88,6.4c-5.24,0-8.63-2.57-9.32-6.36l4.15-.75c.6,2.71,2.52,3.9,5.24,3.9,2.49,0,4.22-1.12,4.22-3,0-1.67-1.68-2.25-4.08-2.65l-2.11-.35c-3.19-.54-6.55-1.64-6.55-5.92,0-3.62,3.54-6.08,8.29-6.08,4.56,0,8,2.61,8.57,5.83Z"/>
</svg>
