<svg width="23" height="23" viewBox="0 0 23 23" fill="none"
  xmlns="http://www.w3.org/2000/svg">
  <path d="M13.127 7.73774C13.568 7.73774 13.9255 7.38027 13.9255 6.93931C13.9255 6.49834 13.568 6.14087 13.127 6.14087C12.6861 6.14087 12.3286 6.49834 12.3286 6.93931C12.3286 7.38027 12.6861 7.73774 13.127 7.73774Z" fill="#00AFAA"/>
  <path d="M11.0726 0C10.3329 0 9.60492 0.0704501 8.88868 0.21135C8.59514 0.270059 8.38379 0.528376 8.38379 0.83366V15.3464C8.38379 15.6986 8.66559 15.9804 9.01784 15.9804C9.37009 15.9804 9.65189 15.6986 9.65189 15.3464V1.36204C10.1216 1.29159 10.603 1.25636 11.0726 1.25636C16.4738 1.25636 20.8769 5.64775 20.8769 11.0607C20.8769 14.1605 19.3858 17.1194 16.873 18.9628C16.5912 19.1742 16.5325 19.5616 16.7321 19.8552C16.8613 20.0196 17.0492 20.1135 17.2488 20.1135C17.3779 20.1135 17.5071 20.0783 17.6245 19.9843C20.4542 17.9061 22.1451 14.5714 22.1451 11.0607C22.1333 4.96673 17.1783 0 11.0726 0Z" fill="#00AFAA"/>
  <path d="M13.1272 11.0373C12.775 11.0373 12.4931 11.3191 12.4931 11.6714V20.7594C12.0235 20.8299 11.5421 20.8651 11.0724 20.8651C5.67123 20.8651 1.2681 16.4737 1.2681 11.0608C1.2681 7.96098 2.7593 5.00208 5.27202 3.15864C5.55382 2.94728 5.61252 2.54807 5.41291 2.26627C5.20156 1.98447 4.80235 1.92576 4.52055 2.12537C1.6908 4.22713 0 7.56177 0 11.0725C0 17.1782 4.96673 22.1449 11.0724 22.1449C11.8121 22.1449 12.5401 22.0745 13.2564 21.9336C13.5499 21.8749 13.7613 21.6166 13.7613 21.3113V11.6831C13.7613 11.3308 13.4795 11.0373 13.1272 11.0373Z" fill="#00AFAA"/>
</svg>
